<svg width="12" height="16" viewBox="0 0 12 16" fill="none" xmlns="http://www.w3.org/2000/svg">
<path fill-rule="evenodd" clip-rule="evenodd" d="M6.00008 0.833496C4.25118 0.833496 2.83341 2.25126 2.83341 4.00016V4.16683H0.666748C0.390606 4.16683 0.166748 4.39069 0.166748 4.66683C0.166748 4.94297 0.390606 5.16683 0.666748 5.16683H11.3334C11.6096 5.16683 11.8334 4.94297 11.8334 4.66683C11.8334 4.39069 11.6096 4.16683 11.3334 4.16683H9.16675V4.00016C9.16675 2.25126 7.74898 0.833496 6.00008 0.833496ZM6.00008 1.8335C7.1967 1.8335 8.16675 2.80355 8.16675 4.00016V4.16683H3.83341V4.00016C3.83341 2.80355 4.80346 1.8335 6.00008 1.8335Z" fill="#FF2525"/>
<path d="M1.83117 5.95287C1.80505 5.67797 1.56103 5.47628 1.28612 5.5024C1.01122 5.52852 0.809537 5.77255 0.835656 6.04746C0.898636 6.71031 1.0123 7.52704 1.1584 8.57687L1.3461 9.92559C1.52554 11.2154 1.62731 11.9469 1.84748 12.5461C2.25722 13.6614 2.98812 14.5554 3.92812 14.952C4.43857 15.1674 5.02243 15.1672 5.89163 15.1669H6.10853C6.97773 15.1672 7.5616 15.1674 8.07204 14.952C9.01205 14.5554 9.74294 13.6614 10.1527 12.5461C10.3729 11.9469 10.4746 11.2154 10.6541 9.92556L10.8418 8.57688C10.9879 7.52704 11.1015 6.71031 11.1645 6.04746C11.1906 5.77255 10.9889 5.52852 10.714 5.5024C10.4391 5.47628 10.1951 5.67796 10.169 5.95287C10.1083 6.59151 9.99774 7.38685 9.84965 8.4509L9.67476 9.70759C9.48108 11.0993 9.39237 11.7159 9.21403 12.2013C8.87011 13.1374 8.29822 13.7712 7.68326 14.0307C7.38312 14.1574 7.01953 14.1668 6.00008 14.1668C4.98064 14.1668 4.61704 14.1574 4.31691 14.0307C3.70194 13.7712 3.13006 13.1374 2.78613 12.2013C2.60779 11.7159 2.51908 11.0993 2.3254 9.70759L2.15051 8.45091C2.00243 7.38685 1.89185 6.59151 1.83117 5.95287Z" fill="#FF2525"/>
<path d="M5.16675 6.66683C5.16675 6.39069 4.94289 6.16683 4.66675 6.16683C4.39061 6.16683 4.16675 6.39069 4.16675 6.66683V12.0002C4.16675 12.2763 4.39061 12.5002 4.66675 12.5002C4.94289 12.5002 5.16675 12.2763 5.16675 12.0002V6.66683Z" fill="#FF2525"/>
<path d="M7.83341 6.66683C7.83341 6.39069 7.60956 6.16683 7.33341 6.16683C7.05727 6.16683 6.83341 6.39069 6.83341 6.66683V12.0002C6.83341 12.2763 7.05727 12.5002 7.33341 12.5002C7.60956 12.5002 7.83341 12.2763 7.83341 12.0002V6.66683Z" fill="#FF2525"/>
</svg>
