<svg width="9" height="10" viewBox="0 0 9 10" fill="none" xmlns="http://www.w3.org/2000/svg">
<path fill-rule="evenodd" clip-rule="evenodd" d="M5.76818 0.698027L5.81561 0.725411C6.22538 0.961973 6.56707 1.15924 6.81727 1.35232C7.08136 1.55611 7.29097 1.79003 7.37876 2.11768C7.46656 2.44533 7.40199 2.75272 7.27518 3.06125C7.15504 3.35356 6.95776 3.69525 6.72117 4.105L4.68026 7.64C4.52389 7.91137 4.40025 8.12593 4.21206 8.28763C4.02387 8.44932 3.79314 8.53925 3.50132 8.65298L3.42247 8.68376C2.88099 8.89533 2.43466 9.06972 2.06916 9.15512C1.6869 9.24443 1.31781 9.25554 0.97379 9.05692C0.629768 8.8583 0.454851 8.5331 0.341065 8.1574C0.232267 7.79817 0.160131 7.32445 0.0726156 6.74973L0.059841 6.66604C0.0124305 6.35646 -0.0250577 6.11167 0.0208813 5.86785C0.0266237 5.83737 0.0335858 5.80735 0.0416792 5.77763C0.0983329 5.56955 0.21042 5.37578 0.347636 5.13856L2.38859 1.60359C2.62515 1.19382 2.82241 0.852121 3.01549 0.60192C3.21929 0.337832 3.45321 0.128225 3.78086 0.0404316C4.10851 -0.0473621 4.41589 0.0172033 4.72443 0.144012C5.01674 0.264153 5.35842 0.461438 5.76818 0.698027ZM2.86151 2.36431L5.8259 4.0758L4.02307 7.19839C3.82667 7.53858 3.77051 7.62556 3.69727 7.68849C3.62402 7.75143 3.52957 7.79385 3.1637 7.93679C2.58628 8.16239 2.19302 8.31498 1.88944 8.38591C1.59619 8.45443 1.46312 8.42731 1.36875 8.37283C1.27438 8.31834 1.18437 8.21666 1.09707 7.92843C1.00671 7.63006 0.942233 7.21319 0.848894 6.60034C0.789749 6.21201 0.779264 6.10901 0.797144 6.01411C0.815024 5.91921 0.862274 5.82708 1.05868 5.4869L2.86151 2.36431ZM6.54456 2.76097C6.47478 2.93077 6.36804 3.13042 6.22004 3.39123L3.25729 1.68069C3.40916 1.42211 3.5287 1.22985 3.64086 1.08451C3.79066 0.890393 3.89156 0.828555 3.98531 0.803436C4.07905 0.778317 4.19735 0.781419 4.42414 0.87463C4.66154 0.9722 4.95728 1.14198 5.39693 1.39581C5.83658 1.64964 6.13149 1.82087 6.33468 1.97768C6.5288 2.12748 6.59064 2.22838 6.61576 2.32213C6.64088 2.41587 6.63777 2.53418 6.54456 2.76097Z" fill="#676874"/>
<path d="M5.0504 8.87544C5.0504 8.6573 5.22723 8.48047 5.44536 8.48047H8.60504C8.82317 8.48047 9 8.6573 9 8.87544C9 9.09357 8.82317 9.2704 8.60504 9.2704H5.44536C5.22723 9.2704 5.0504 9.09357 5.0504 8.87544Z" fill="#676874"/>
</svg>
