<svg width="15" height="15" viewBox="0 0 15 15" fill="none" xmlns="http://www.w3.org/2000/svg">
<path d="M8.00016 6.8335C8.00016 6.55735 7.7763 6.3335 7.50016 6.3335C7.22402 6.3335 7.00016 6.55735 7.00016 6.8335V10.8335C7.00016 11.1096 7.22402 11.3335 7.50016 11.3335C7.7763 11.3335 8.00016 11.1096 8.00016 10.8335V6.8335Z" fill="white"/>
<path fill-rule="evenodd" clip-rule="evenodd" d="M7.50016 0.333496C3.54212 0.333496 0.333496 3.54212 0.333496 7.50016C0.333496 11.4582 3.54212 14.6668 7.50016 14.6668C11.4582 14.6668 14.6668 11.4582 14.6668 7.50016C14.6668 3.54212 11.4582 0.333496 7.50016 0.333496ZM1.3335 7.50016C1.3335 4.09441 4.09441 1.3335 7.50016 1.3335C10.9059 1.3335 13.6668 4.09441 13.6668 7.50016C13.6668 10.9059 10.9059 13.6668 7.50016 13.6668C4.09441 13.6668 1.3335 10.9059 1.3335 7.50016Z" fill="white"/>
<path d="M8.16683 4.8335C8.16683 5.20169 7.86835 5.50016 7.50016 5.50016C7.13197 5.50016 6.83349 5.20169 6.83349 4.8335C6.83349 4.46531 7.13197 4.16683 7.50016 4.16683C7.86835 4.16683 8.16683 4.46531 8.16683 4.8335Z" fill="white"/>
</svg>
