<svg width="16" height="16" viewBox="0 0 16 16" fill="none" xmlns="http://www.w3.org/2000/svg">
<path d="M11.9806 1.16842C12.6522 1.16543 13.1136 1.16412 13.4651 1.20251C13.5793 1.21498 13.6748 1.23106 13.7558 1.25049L6.6702 8.33613C6.47494 8.53139 6.47494 8.84798 6.6702 9.04324C6.86546 9.2385 7.18205 9.2385 7.37731 9.04324L14.463 1.9576C14.4824 2.03867 14.4985 2.13413 14.5109 2.24836C14.5493 2.59986 14.548 3.06129 14.545 3.73286L14.5376 5.38762C14.5364 5.66376 14.7593 5.88862 15.0354 5.88985C15.3115 5.89108 15.5364 5.66823 15.5376 5.39209L15.5451 3.70753C15.548 3.07305 15.5503 2.55449 15.505 2.1398C15.4579 1.70858 15.3542 1.32681 15.1 0.998284C15.0449 0.927168 14.9856 0.859646 14.9222 0.796086C14.8572 0.730908 14.7881 0.669903 14.7152 0.613465C14.3866 0.359224 14.0049 0.255511 13.5736 0.20842C13.159 0.163134 12.6404 0.165457 12.0059 0.168299L10.3214 0.175815C10.0452 0.177047 9.82236 0.401901 9.82359 0.678041C9.82482 0.95418 10.0497 1.17704 10.3258 1.1758L11.9806 1.16842Z" fill="#5E8DF6"/>
<path d="M8.67258 2.29503C8.26882 2.29019 7.8241 2.29019 7.33541 2.29019H7.30308C6.07873 2.29018 5.11899 2.29018 4.35757 2.37267C3.58054 2.45686 2.95096 2.63174 2.41341 3.02229C2.08798 3.25873 1.80179 3.54492 1.56535 3.87035C1.1748 4.40789 0.999923 5.03748 0.915737 5.81451C0.833242 6.57593 0.833247 7.53567 0.833252 8.76002V8.82036C0.833247 10.0447 0.833242 11.0044 0.915737 11.7659C0.999923 12.5429 1.1748 13.1725 1.56535 13.71C1.80179 14.0355 2.08798 14.3216 2.41341 14.5581C2.95096 14.9486 3.58054 15.1235 4.35757 15.2077C5.11898 15.2902 6.07869 15.2902 7.30302 15.2902H7.36343C8.58776 15.2902 9.54752 15.2902 10.3089 15.2077C11.086 15.1235 11.7155 14.9486 12.2531 14.5581C12.5785 14.3216 12.8647 14.0355 13.1012 13.71C13.4917 13.1725 13.6666 12.5429 13.7508 11.7659C13.8333 11.0045 13.8333 10.0447 13.8333 8.82042V8.78788C13.8333 8.29926 13.8333 7.85458 13.8284 7.45086C13.8251 7.17474 13.5986 6.95358 13.3225 6.95689C13.0463 6.9602 12.8252 7.18673 12.8285 7.46285C12.8332 7.86002 12.8333 8.29906 12.8333 8.79019C12.8333 10.0512 12.8326 10.9569 12.7566 11.6582C12.6816 12.3501 12.5382 12.7836 12.2921 13.1222C12.1174 13.3628 11.9058 13.5743 11.6653 13.7491C11.3266 13.9951 10.8932 14.1386 10.2012 14.2135C9.49992 14.2895 8.5943 14.2902 7.33325 14.2902C6.0722 14.2902 5.16658 14.2895 4.46528 14.2135C3.77334 14.1386 3.33986 13.9951 3.00119 13.7491C2.76066 13.5743 2.54913 13.3628 2.37437 13.1222C2.12831 12.7836 1.98489 12.3501 1.90992 11.6582C1.83394 10.9569 1.83325 10.0512 1.83325 8.79019C1.83325 7.52914 1.83394 6.62352 1.90992 5.92222C1.98489 5.23028 2.12831 4.7968 2.37437 4.45813C2.54913 4.2176 2.76066 4.00607 3.00119 3.83131C3.33986 3.58525 3.77334 3.44182 4.46528 3.36686C5.16658 3.29088 6.0722 3.29019 7.33325 3.29019C7.82438 3.29019 8.26342 3.2902 8.66059 3.29496C8.93671 3.29827 9.16324 3.07711 9.16655 2.80099C9.16986 2.52486 8.9487 2.29834 8.67258 2.29503Z" fill="#5E8DF6"/>
</svg>
