<svg width="22" height="13" viewBox="0 0 22 13" fill="none" xmlns="http://www.w3.org/2000/svg">
<path d="M15.171 3.30975L16.4251 4.79933C16.5686 4.96664 16.6959 5.10426 16.7474 5.18252C17.1224 5.55932 17.3327 6.06857 17.3324 6.59924C17.2972 7.2253 16.8936 7.65166 16.5199 8.10771L15.6423 9.14935L15.1845 9.68905C15.1681 9.70765 15.1575 9.73065 15.154 9.75521C15.1506 9.77974 15.1544 9.80474 15.1651 9.82714C15.1758 9.84954 15.1928 9.86832 15.214 9.88119C15.2353 9.89403 15.2599 9.90041 15.2847 9.89954H19.8596C20.5584 9.89954 21.4387 10.4932 21.3872 11.3945C21.3858 11.8042 21.2218 12.1966 20.9311 12.4863C20.6403 12.776 20.2464 12.9393 19.8352 12.9408H12.6709C12.1996 12.9408 10.932 12.992 10.5772 11.8991C10.5017 11.6707 10.4914 11.426 10.5474 11.1921C10.6505 10.8463 10.8137 10.5211 11.0295 10.2314C11.3897 9.69174 11.7798 9.15204 12.1644 8.62852C12.6601 7.94309 13.1693 7.27927 13.6704 6.58034C13.6882 6.55759 13.6979 6.52958 13.6979 6.50074C13.6979 6.47191 13.6882 6.4439 13.6704 6.42114L11.8502 4.26232C11.8383 4.24668 11.823 4.23398 11.8053 4.22524C11.7877 4.21651 11.7683 4.21196 11.7486 4.21196C11.7289 4.21196 11.7095 4.21651 11.6919 4.22524C11.6743 4.23398 11.6589 4.24668 11.6471 4.26232C11.1595 4.91806 9.02511 7.82168 8.57007 8.40996C8.11502 8.99823 6.99365 9.0306 6.37338 8.40996L3.52662 5.56302C3.50845 5.54484 3.48523 5.53243 3.45999 5.52742C3.43472 5.52238 3.40852 5.52496 3.38474 5.53479C3.36093 5.54462 3.34059 5.56126 3.32632 5.58262C3.31204 5.60398 3.30446 5.62909 3.30451 5.65475V11.1301C3.3112 11.5186 3.19574 11.8995 2.97422 12.2194C2.75274 12.5392 2.43635 12.782 2.06938 12.9138C1.8349 12.9951 1.58432 13.0194 1.33849 12.9846C1.09268 12.9498 0.858794 12.857 0.656298 12.7139C0.453802 12.5708 0.288576 12.3815 0.174408 12.1618C0.0602667 11.9422 0.000460465 11.6985 0 11.4512V1.60697C0.016333 1.25221 0.144451 0.911603 0.366178 0.633538C0.587905 0.355474 0.891948 0.154106 1.23513 0.0580226C1.5295 -0.0201038 1.83937 -0.0193207 2.13333 0.0602953C2.4273 0.139895 2.69491 0.295535 2.90906 0.511387L7.28618 4.87759C7.29929 4.89084 7.31514 4.90108 7.33266 4.90755C7.35016 4.91401 7.3689 4.91658 7.38751 4.91502C7.40612 4.91349 7.42416 4.90787 7.44036 4.89862C7.45655 4.88934 7.47047 4.87663 7.4812 4.86138L10.5907 0.573435C10.7344 0.399367 10.9145 0.258706 11.1185 0.16128C11.3225 0.063855 11.5455 0.0120483 11.7717 0.009447H19.8596C20.0809 0.00983035 20.2997 0.057256 20.5011 0.148602C20.7026 0.239976 20.8821 0.373135 21.0278 0.53918C21.1734 0.705225 21.2818 0.900349 21.3456 1.11149C21.4095 1.32263 21.4274 1.54492 21.3981 1.76349C21.3411 2.14264 21.148 2.48837 20.8546 2.73648C20.5612 2.98459 20.1875 3.11829 19.8027 3.11276H15.2739C15.2511 3.11331 15.229 3.11994 15.2096 3.13193C15.1903 3.14392 15.1746 3.16087 15.1641 3.18097C15.1535 3.2011 15.1486 3.22366 15.1499 3.24631C15.1511 3.26895 15.1584 3.29086 15.171 3.30975Z" fill="#989FB7"/>
</svg>
