<svg width="18" height="18" viewBox="0 0 18 18" fill="none" xmlns="http://www.w3.org/2000/svg">
<path d="M17.7731 16.7107L12.6087 11.5425C13.6268 10.3215 14.2392 8.76109 14.2392 7.05682C14.2392 3.16871 11.0483 0.00732422 7.12327 0.00732422C3.19828 0.00732422 0 3.1724 0 7.0605C0 10.9486 3.1909 14.11 7.11589 14.11C8.78328 14.11 10.3179 13.5382 11.5352 12.5828L16.7181 17.7657C17.0206 18.0682 17.4706 18.0682 17.7731 17.7657C18.0756 17.4632 18.0756 17.0132 17.7731 16.7107ZM1.51245 7.0605C1.51245 4.00609 4.02828 1.52346 7.11589 1.52346C10.2035 1.52346 12.7193 4.00609 12.7193 7.0605C12.7193 10.1149 10.2035 12.5975 7.11589 12.5975C4.02828 12.5975 1.51245 10.1112 1.51245 7.0605Z" fill="#7A7E8B"/>
</svg>
