<svg width="24" height="20" viewBox="0 0 24 20" fill="none" xmlns="http://www.w3.org/2000/svg">
<path d="M23.4561 2.26768C23.079 2.43491 22.6914 2.57604 22.2953 2.69062C22.7643 2.1603 23.1218 1.5363 23.34 0.853468C23.3889 0.700411 23.3382 0.532876 23.2124 0.432773C23.0868 0.332593 22.9122 0.320593 22.7739 0.402579C21.9327 0.901468 21.0252 1.26 20.0736 1.46965C19.1151 0.533031 17.8132 0 16.4674 0C13.6265 0 11.3152 2.31119 11.3152 5.15201C11.3152 5.37575 11.3294 5.59825 11.3574 5.81766C7.83212 5.50814 4.55474 3.77542 2.30416 1.01473C2.22396 0.916333 2.1004 0.863301 1.97389 0.873443C1.84731 0.883352 1.73358 0.954733 1.66964 1.06444C1.21317 1.84768 0.971858 2.7435 0.971858 3.65496C0.971858 4.89637 1.41508 6.07423 2.19802 6.99458C1.95996 6.91213 1.72894 6.80909 1.50845 6.68669C1.39008 6.62081 1.24561 6.62181 1.12801 6.68924C1.01034 6.75668 0.936555 6.8807 0.933459 7.01626C0.932917 7.0391 0.932917 7.06194 0.932917 7.08509C0.932917 8.93811 1.93023 10.6064 3.455 11.5157C3.32401 11.5026 3.19309 11.4837 3.06303 11.4588C2.92894 11.4332 2.79105 11.4802 2.70063 11.5824C2.61005 11.6846 2.58009 11.8271 2.62181 11.9572C3.1862 13.7192 4.63928 15.0153 6.39592 15.4104C4.93897 16.323 3.27283 16.801 1.52378 16.801C1.15883 16.801 0.791782 16.7795 0.432557 16.737C0.254106 16.7158 0.0834742 16.8212 0.0227002 16.9909C-0.0380738 17.1606 0.0263389 17.3499 0.178158 17.4472C2.42509 18.8879 5.0232 19.6494 7.69145 19.6494C12.9369 19.6494 16.2183 17.1759 18.0473 15.1008C20.3281 12.5134 21.6362 9.08862 21.6362 5.7047C21.6362 5.56334 21.634 5.42058 21.6297 5.27828C22.5295 4.60032 23.3042 3.77983 23.9347 2.83679C24.0304 2.69357 24.0201 2.50428 23.9091 2.37243C23.7983 2.24051 23.6137 2.19785 23.4561 2.26768Z" fill="#989FB7"/>
</svg>
