<svg width="12" height="14" viewBox="0 0 12 14" fill="none" xmlns="http://www.w3.org/2000/svg">
<path fill-rule="evenodd" clip-rule="evenodd" d="M6.00016 0.333008C4.25126 0.333008 2.8335 1.75077 2.8335 3.49967C2.8335 5.24858 4.25126 6.66634 6.00016 6.66634C7.74906 6.66634 9.16683 5.24858 9.16683 3.49967C9.16683 1.75077 7.74906 0.333008 6.00016 0.333008ZM3.8335 3.49967C3.8335 2.30306 4.80355 1.33301 6.00016 1.33301C7.19678 1.33301 8.16683 2.30306 8.16683 3.49967C8.16683 4.69629 7.19678 5.66634 6.00016 5.66634C4.80355 5.66634 3.8335 4.69629 3.8335 3.49967Z" fill="#121318"/>
<path fill-rule="evenodd" clip-rule="evenodd" d="M4.00016 7.66634C2.25126 7.66634 0.833496 9.08411 0.833496 10.833C0.833496 12.5819 2.25126 13.9997 4.00016 13.9997H8.00016C9.74906 13.9997 11.1668 12.5819 11.1668 10.833C11.1668 9.08411 9.74906 7.66634 8.00016 7.66634H4.00016ZM1.8335 10.833C1.8335 9.63639 2.80355 8.66634 4.00016 8.66634H8.00016C9.19678 8.66634 10.1668 9.63639 10.1668 10.833C10.1668 12.0296 9.19678 12.9997 8.00016 12.9997H4.00016C2.80355 12.9997 1.8335 12.0296 1.8335 10.833Z" fill="#121318"/>
</svg>
