<svg width="15" height="15" viewBox="0 0 15 15" fill="none" xmlns="http://www.w3.org/2000/svg">
<path d="M6.49633 14.9338C4.75298 14.6769 3.31384 13.9427 2.10318 12.6925C1.07353 11.6293 0.439713 10.4371 0.133605 8.98801C-0.0445349 8.14459 -0.0445349 6.8596 0.133605 6.01618C0.439713 4.56705 1.07353 3.37488 2.10318 2.31162C5.08798 -0.77054 9.91472 -0.77054 12.8995 2.31162C13.9835 3.43099 14.6812 4.8059 14.933 6.31887C15.0223 6.85532 15.0223 8.14885 14.933 8.68535C14.4813 11.399 12.4921 13.747 9.92517 14.5962C8.80493 14.9669 7.55542 15.0899 6.49633 14.9338ZM7.93768 14.136C8.49395 13.8531 9.03911 13.0559 9.42006 11.9683C9.54246 11.6188 9.65899 11.2645 9.67903 11.1808L9.71551 11.0286L8.93356 10.9597C8.5035 10.9217 7.84988 10.8908 7.48106 10.8909C6.76412 10.8909 5.39889 10.9985 5.33375 11.06C5.27317 11.1172 5.65564 12.2205 5.93347 12.7899C6.08275 13.0959 6.31442 13.445 6.51437 13.6653C7.02313 14.2258 7.47036 14.3737 7.93768 14.136ZM5.75738 13.9877C5.75738 13.973 5.68831 13.8602 5.60387 13.7372C5.23534 13.2003 4.575 11.624 4.575 11.2813C4.575 11.2287 4.5418 11.1857 4.5011 11.1858C4.3612 11.1858 3.36213 11.4713 2.84025 11.66L2.31743 11.8491L2.69249 12.2289C3.40238 12.9479 4.33767 13.5416 5.2758 13.8687C5.69381 14.0145 5.75738 14.0302 5.75738 13.9877ZM10.073 13.7327C10.9578 13.3633 11.6399 12.9044 12.311 12.2268L12.6869 11.8474L12.21 11.664C11.7682 11.4942 10.6714 11.1874 10.5016 11.1861C10.461 11.1861 10.4277 11.2287 10.4277 11.2813C10.4277 11.6277 9.71527 13.3242 9.3867 13.7601C9.30894 13.8633 9.24532 13.9633 9.24532 13.9822C9.24532 14.0424 9.55397 13.9492 10.073 13.7327ZM2.13876 11.1342C2.44245 10.9815 3.20165 10.7263 3.83605 10.5638C4.12867 10.4888 4.36321 10.4043 4.35723 10.3761C4.30029 10.108 4.1613 8.64769 4.16126 8.31727C4.16121 8.08492 4.14486 7.85287 4.12519 7.80159C4.09362 7.71961 3.88691 7.70838 2.41191 7.70838H0.734508L0.76771 7.98832C0.911213 9.20192 1.28647 10.3579 1.78146 11.111C1.887 11.2717 1.86794 11.2703 2.13876 11.1342ZM13.5305 10.5352C13.8469 9.9118 14.0646 9.21158 14.1807 8.44404C14.2296 8.12049 14.2698 7.82255 14.27 7.78206C14.27 7.72485 13.8951 7.70838 12.5902 7.70838H10.91L10.8789 8.07671C10.8617 8.27931 10.8148 8.78987 10.7747 9.21125C10.7345 9.63264 10.7 10.0799 10.6979 10.2051L10.6938 10.4327L11.4149 10.6297C11.8115 10.7381 12.3569 10.9188 12.6268 11.0314C13.2019 11.2712 13.1396 11.3054 13.5305 10.5352ZM6.16268 10.1842C7.01665 10.1012 8.1282 10.1112 9.06673 10.2104C9.50503 10.2566 9.87164 10.2863 9.88148 10.2766C9.91714 10.241 10.0635 8.96154 10.103 8.34213L10.1436 7.70858H7.50471H4.86582L4.89943 8.1653C4.97694 9.22362 4.99436 9.4103 5.05667 9.84897L5.12213 10.3097L5.33642 10.2766C5.4543 10.2586 5.82595 10.2169 6.16268 10.1842ZM4.17765 6.24971C4.19651 5.90122 4.25582 5.34207 4.3096 5.00707C4.36341 4.67211 4.39535 4.38597 4.38059 4.3713C4.36583 4.35659 4.10875 4.27919 3.80924 4.19931C3.50973 4.11938 2.99269 3.94801 2.66027 3.81843C2.32784 3.68885 2.04117 3.58284 2.02321 3.58284C1.96468 3.58284 1.57467 4.20472 1.33422 4.68139C1.05865 5.22782 0.81042 5.99588 0.741599 6.51493L0.692822 6.88326H2.41814H4.14347L4.17765 6.24971ZM10.1009 6.42649C10.0577 5.88051 9.90042 4.72474 9.85234 4.59978C9.82446 4.52791 9.74941 4.51834 9.45781 4.5498C7.98396 4.70876 7.021 4.70868 5.5421 4.5498C5.21886 4.51507 5.17541 4.52283 5.14557 4.62156C5.09056 4.80381 4.93817 5.99738 4.91136 6.45632L4.88636 6.88358H7.51164H10.137L10.1009 6.42649ZM14.2019 6.49178C14.139 5.97029 13.9551 5.3173 13.7351 4.83356C13.5499 4.42635 13.0458 3.58284 12.9876 3.58284C12.9696 3.58284 12.7121 3.68006 12.4154 3.79893C12.1188 3.91776 11.5998 4.08928 11.2622 4.18008C10.9246 4.27083 10.6363 4.35708 10.6216 4.37175C10.6069 4.38646 10.6364 4.64586 10.6874 4.94833C10.7383 5.2508 10.7952 5.72368 10.8138 5.99922C10.8322 6.27477 10.8608 6.58639 10.8768 6.69174L10.9059 6.88326H12.5775H14.2491L14.2019 6.49178ZM9.09534 3.81217C9.38678 3.7803 9.63247 3.74692 9.64136 3.7381C9.67087 3.70867 9.35374 2.7925 9.1897 2.43356C8.72972 1.42701 8.06516 0.753929 7.53136 0.753929C6.93345 0.753929 6.28282 1.40386 5.81341 2.47007C5.66138 2.81532 5.34355 3.67103 5.34355 3.73498C5.34355 3.76644 6.01201 3.83923 6.64414 3.87649C7.41044 3.92165 8.31069 3.89815 9.09534 3.81217ZM4.77577 3.05147C4.96243 2.45446 5.3101 1.7049 5.58526 1.3062C5.68618 1.15995 5.75738 1.02896 5.74348 1.01511C5.6993 0.97106 4.91661 1.25941 4.45679 1.48914C4.2129 1.61095 3.84047 1.83226 3.62913 1.98088C3.22846 2.26263 2.56501 2.86014 2.56501 2.93921C2.56501 3.04014 4.15589 3.5694 4.48884 3.57925C4.59005 3.58333 4.63653 3.4968 4.77577 3.05147ZM11.1651 3.431C11.7868 3.25128 12.4377 2.99878 12.4377 2.93724C12.4377 2.85985 11.7695 2.25932 11.3736 1.98088C11.1622 1.83226 10.7898 1.61095 10.5459 1.48914C10.0848 1.25879 9.30332 0.971105 9.25893 1.01536C9.245 1.02925 9.30164 1.13007 9.3851 1.23913C9.61148 1.53506 10.1054 2.60621 10.2552 3.12607C10.4099 3.6631 10.3877 3.65566 11.1651 3.431Z" fill="#989FB7"/>
</svg>
