<?xml version="1.0" standalone="no"?>
<!DOCTYPE svg PUBLIC "-//W3C//DTD SVG 20010904//EN"
 "http://www.w3.org/TR/2001/REC-SVG-20010904/DTD/svg10.dtd">
<svg version="1.0" xmlns="http://www.w3.org/2000/svg"
 width="1184.000000pt" height="1184.000000pt" viewBox="0 0 1184.000000 1184.000000"
 preserveAspectRatio="xMidYMid meet">
<metadata>
Created by potrace 1.14, written by Peter Selinger 2001-2017
</metadata>
<g transform="translate(0.000000,1184.000000) scale(0.100000,-0.100000)"
fill="#000000" stroke="none">
<path d="M8480 11810 c-16 -17 -45 -59 -66 -95 -21 -36 -42 -65 -46 -65 -4 0
-8 -5 -8 -10 0 -6 -22 -44 -50 -85 -27 -41 -50 -78 -50 -84 0 -5 -3 -11 -8
-13 -4 -1 -36 -48 -72 -103 -35 -55 -110 -171 -167 -258 -57 -87 -103 -162
-103 -167 0 -6 -3 -10 -8 -10 -4 0 -12 -9 -17 -20 -6 -11 -57 -92 -115 -180
-58 -88 -109 -169 -115 -178 -5 -9 -14 -20 -20 -24 -7 -5 -7 -8 0 -8 6 0 2 -5
-7 -11 -10 -5 -18 -14 -18 -19 0 -8 -36 -67 -57 -95 -9 -10 -135 -210 -147
-232 -17 -30 -38 -135 -42 -212 -3 -47 -7 -88 -10 -93 -3 -4 -1 -8 4 -8 5 0 6
-17 2 -40 -4 -22 -4 -40 0 -40 4 0 4 -18 0 -40 -4 -23 -3 -40 2 -40 5 0 6 -5
3 -10 -8 -14 -9 -186 -1 -199 4 -5 2 -12 -3 -15 -4 -3 -5 -24 -1 -46 4 -22 4
-42 0 -45 -4 -3 -4 -22 0 -42 3 -21 3 -50 -1 -64 -3 -15 -3 -32 1 -39 4 -7 4
-26 0 -44 -4 -17 -4 -40 0 -51 4 -11 4 -30 -1 -41 -4 -12 -5 -24 -3 -27 8 -8
7 -153 0 -166 -4 -6 -3 -11 2 -11 5 0 6 -17 2 -40 -4 -22 -4 -40 0 -40 4 0 4
-18 0 -40 -4 -23 -3 -40 2 -40 5 0 6 -5 3 -10 -3 -6 -6 -49 -5 -98 0 -48 1
-96 0 -107 0 -11 0 -33 1 -50 0 -16 0 -37 -1 -45 0 -8 0 -28 1 -45 1 -16 0
-37 0 -45 -1 -8 -1 -26 0 -40 0 -14 0 -31 0 -37 -4 -54 -2 -174 3 -228 1 -11
-1 -37 -5 -57 -3 -21 -3 -38 1 -38 4 0 4 -18 0 -40 -4 -22 -4 -40 0 -40 4 0 4
-18 0 -40 -4 -23 -3 -40 2 -40 5 0 6 -5 3 -10 -8 -14 -9 -186 -1 -199 4 -5 2
-12 -3 -15 -4 -3 -5 -24 -1 -46 4 -22 4 -42 0 -45 -4 -3 -4 -22 0 -42 3 -21 3
-50 -1 -64 -3 -15 -3 -32 1 -39 4 -7 4 -26 0 -44 -4 -17 -4 -40 0 -51 4 -11 4
-30 -1 -41 -4 -12 -5 -24 -3 -27 8 -8 7 -153 0 -166 -4 -6 -3 -11 2 -11 5 0 6
-17 2 -40 -4 -22 -4 -40 0 -40 4 0 4 -18 0 -40 -4 -22 -4 -40 0 -40 4 0 4 -18
0 -40 -4 -22 -4 -40 0 -40 4 0 4 -18 0 -40 -4 -22 -4 -40 0 -40 4 0 4 -18 0
-40 -4 -22 -4 -40 0 -40 4 0 4 -18 0 -40 -4 -23 -3 -40 2 -40 5 0 6 -5 3 -10
-8 -14 -9 -186 -1 -199 4 -5 2 -12 -3 -15 -4 -3 -5 -24 -1 -46 4 -22 4 -42 0
-45 -4 -3 -4 -22 0 -42 3 -21 3 -50 -1 -64 -3 -15 -3 -32 1 -39 4 -7 4 -26 0
-44 -4 -17 -4 -40 0 -51 4 -11 4 -30 -1 -41 -4 -12 -5 -24 -3 -27 8 -8 7 -153
0 -166 -4 -6 -3 -11 2 -11 5 0 6 -17 2 -40 -4 -22 -4 -40 0 -40 4 0 4 -18 0
-40 -4 -23 -3 -40 2 -40 5 0 6 -5 3 -10 -3 -6 -6 -49 -5 -98 0 -48 1 -96 0
-107 0 -11 0 -33 1 -50 0 -16 0 -37 -1 -45 0 -8 0 -28 1 -45 1 -16 0 -37 0
-45 -1 -8 -1 -26 0 -40 0 -14 0 -31 0 -37 -4 -54 -2 -174 3 -228 1 -11 -1 -37
-5 -57 -3 -21 -3 -38 1 -38 4 0 4 -18 0 -40 -4 -22 -4 -40 0 -40 4 0 4 -18 0
-40 -4 -23 -3 -40 2 -40 5 0 6 -5 3 -10 -8 -14 -9 -186 -1 -199 4 -5 2 -12 -3
-15 -4 -3 -5 -24 -1 -46 4 -22 4 -42 0 -45 -4 -3 -4 -22 0 -42 3 -21 3 -50 -1
-64 -3 -15 -3 -32 1 -39 4 -7 4 -26 0 -44 -4 -17 -4 -40 0 -51 4 -11 4 -30 -1
-41 -4 -12 -5 -24 -3 -27 8 -8 7 -153 0 -166 -4 -6 -3 -11 2 -11 5 0 6 -17 2
-40 -4 -22 -4 -40 0 -40 4 0 4 -18 0 -40 -4 -23 -3 -40 2 -40 5 0 6 -5 3 -10
-3 -6 -6 -49 -5 -98 0 -48 1 -96 0 -107 0 -11 0 -33 1 -50 0 -16 0 -37 -1 -45
0 -8 0 -28 1 -45 1 -16 0 -37 0 -45 -1 -8 -1 -26 0 -40 0 -14 0 -31 0 -37 -4
-54 -2 -174 3 -228 1 -11 -1 -37 -5 -57 -3 -21 -3 -38 1 -38 4 0 4 -18 0 -40
-4 -22 -4 -40 0 -40 4 0 4 -18 0 -40 -4 -23 -3 -40 2 -40 5 0 6 -5 3 -10 -8
-14 -9 -186 -1 -199 4 -5 2 -12 -3 -15 -4 -3 -5 -24 -1 -46 4 -22 4 -42 0 -45
-4 -3 -4 -22 0 -42 3 -21 3 -50 -1 -64 -3 -15 -3 -32 1 -39 4 -7 4 -26 0 -44
-4 -17 -4 -40 0 -51 4 -11 4 -30 -1 -41 -4 -12 -5 -24 -3 -27 8 -8 7 -153 0
-166 -4 -6 -3 -11 2 -11 5 0 6 -17 2 -40 -4 -22 -4 -40 0 -40 4 0 4 -18 0 -40
-4 -23 -3 -40 2 -40 5 0 6 -5 3 -10 -3 -6 -6 -49 -5 -98 0 -48 1 -96 0 -107 0
-11 0 -33 1 -50 0 -16 0 -37 -1 -45 0 -8 0 -28 1 -45 1 -16 0 -37 0 -45 -1 -8
-1 -26 0 -40 0 -14 0 -31 0 -37 -4 -54 -2 -174 3 -228 1 -11 -1 -37 -5 -57 -3
-21 -3 -38 1 -38 4 0 4 -18 0 -40 -4 -22 -4 -40 0 -40 4 0 4 -18 0 -40 -4 -23
-3 -40 2 -40 5 0 6 -5 3 -10 -8 -14 -9 -186 -1 -199 4 -5 2 -12 -3 -15 -4 -3
-5 -24 -1 -46 4 -22 4 -42 0 -45 -4 -3 -4 -22 0 -44 4 -22 4 -45 0 -52 -4 -6
-4 -23 0 -38 4 -14 4 -35 0 -46 -4 -11 -6 -23 -4 -27 3 -4 7 -26 10 -50 10
-84 58 -148 110 -148 18 0 52 30 68 62 7 13 30 55 51 93 82 150 99 183 143
265 25 47 54 102 66 124 74 135 118 218 143 266 15 30 30 57 33 60 3 3 14 23
26 45 11 22 40 76 64 120 24 44 59 109 78 145 68 127 95 175 105 188 5 6 6 12
2 12 -5 0 -1 8 7 18 9 9 39 62 68 117 84 160 94 180 105 187 6 4 6 8 1 8 -5 0
-3 6 3 13 11 14 47 81 127 235 23 46 50 113 58 150 14 60 15 559 13 4842 l-2
4775 -23 46 c-35 73 -87 88 -132 39z"/>
<path d="M6243 8747 c-16 -12 -29 -24 -31 -27 -3 -6 -265 -358 -279 -375 -5
-5 -20 -26 -33 -45 -14 -19 -35 -46 -47 -60 -13 -13 -23 -28 -23 -32 0 -3 -6
-13 -12 -20 -7 -7 -35 -42 -61 -78 -101 -136 -348 -466 -360 -480 -6 -8 -19
-26 -28 -40 -9 -14 -28 -38 -43 -55 -14 -16 -26 -33 -26 -37 0 -4 -6 -13 -13
-20 -32 -33 -119 -157 -137 -196 -12 -24 -23 -64 -25 -90 -2 -26 -5 -47 -5
-47 -1 0 -2 -17 -3 -38 -1 -20 1 -37 5 -37 4 0 3 -13 -2 -30 -5 -17 -5 -30 0
-30 5 0 5 -13 0 -30 -5 -17 -5 -30 0 -30 5 0 5 -13 0 -30 -5 -17 -5 -30 0 -30
5 0 5 -13 0 -30 -5 -17 -5 -30 0 -30 5 0 5 -13 0 -30 -5 -17 -5 -30 0 -30 5 0
5 -13 0 -30 -5 -17 -5 -30 0 -30 5 0 5 -13 0 -29 -4 -15 -4 -34 0 -42 5 -7 5
-20 0 -29 -5 -9 -5 -22 0 -30 5 -8 5 -21 0 -30 -5 -9 -5 -22 0 -30 5 -8 5 -21
0 -30 -5 -9 -5 -22 0 -30 5 -8 5 -21 0 -30 -5 -9 -5 -22 0 -30 5 -8 5 -21 0
-30 -5 -9 -5 -22 0 -30 5 -8 5 -21 0 -30 -5 -9 -5 -22 0 -30 5 -8 5 -21 0 -30
-5 -9 -5 -22 0 -30 5 -8 5 -21 0 -30 -5 -9 -5 -22 0 -30 5 -8 5 -21 0 -30 -5
-9 -5 -22 0 -30 5 -8 5 -21 0 -30 -5 -9 -5 -22 0 -30 5 -8 5 -21 0 -30 -5 -9
-5 -22 0 -30 5 -8 5 -21 0 -30 -5 -9 -5 -22 0 -30 5 -8 5 -21 0 -30 -5 -9 -5
-22 0 -30 5 -8 5 -21 0 -30 -5 -9 -5 -22 0 -30 5 -8 5 -21 0 -30 -5 -9 -5 -22
0 -30 5 -8 5 -21 0 -30 -5 -9 -5 -22 0 -30 5 -8 5 -21 0 -30 -5 -9 -5 -22 0
-30 5 -8 5 -21 0 -30 -5 -9 -5 -22 0 -30 5 -8 5 -21 0 -30 -5 -9 -5 -22 0 -30
5 -8 5 -21 0 -30 -5 -9 -5 -22 0 -30 5 -8 5 -21 0 -30 -5 -9 -5 -22 0 -30 5
-8 5 -21 0 -30 -5 -9 -5 -22 0 -30 5 -8 5 -21 0 -30 -5 -9 -5 -22 0 -30 5 -8
5 -21 0 -30 -5 -9 -5 -22 0 -30 5 -8 5 -21 0 -30 -5 -9 -5 -22 0 -30 5 -8 5
-21 0 -30 -5 -9 -5 -22 0 -30 5 -8 5 -21 0 -30 -5 -9 -5 -22 0 -30 5 -8 5 -21
0 -30 -5 -9 -5 -22 0 -30 5 -8 5 -21 0 -30 -5 -9 -5 -22 0 -30 5 -8 5 -21 0
-30 -5 -9 -5 -22 0 -30 5 -8 5 -21 0 -30 -5 -9 -5 -22 0 -30 5 -8 5 -21 0 -30
-5 -9 -5 -22 0 -30 5 -8 5 -21 0 -30 -5 -9 -5 -22 0 -30 5 -8 5 -21 0 -30 -5
-9 -5 -22 0 -30 5 -8 5 -21 0 -30 -5 -9 -5 -22 0 -30 5 -8 5 -21 0 -30 -5 -9
-5 -22 0 -30 5 -8 5 -21 0 -30 -5 -9 -5 -22 0 -30 5 -8 5 -21 0 -30 -5 -9 -5
-22 0 -30 5 -8 5 -21 0 -30 -5 -9 -5 -22 0 -30 5 -8 5 -21 0 -30 -5 -9 -5 -22
0 -30 5 -8 5 -21 0 -30 -5 -9 -5 -22 0 -30 5 -8 5 -21 0 -30 -5 -9 -5 -22 0
-30 5 -8 5 -21 0 -30 -5 -9 -5 -22 0 -30 5 -8 5 -21 0 -30 -5 -9 -5 -22 0 -30
5 -8 5 -21 0 -30 -5 -9 -5 -22 0 -30 5 -8 5 -21 0 -30 -5 -9 -5 -22 0 -30 5
-8 5 -21 0 -30 -5 -9 -5 -22 0 -30 5 -8 5 -21 0 -30 -5 -9 -5 -22 0 -30 5 -8
5 -21 0 -30 -5 -9 -5 -22 0 -30 5 -8 5 -21 0 -30 -5 -9 -5 -22 0 -30 5 -8 5
-21 0 -30 -5 -9 -5 -22 0 -30 5 -8 5 -21 0 -30 -5 -9 -5 -22 0 -30 5 -8 5 -21
0 -30 -5 -9 -5 -22 0 -30 5 -8 5 -21 0 -30 -5 -9 -5 -22 0 -30 5 -8 5 -21 0
-30 -5 -9 -5 -22 0 -30 5 -8 5 -21 0 -30 -5 -9 -5 -22 0 -30 5 -8 5 -21 0 -30
-5 -9 -5 -22 0 -30 5 -8 5 -21 0 -30 -5 -9 -5 -22 0 -30 5 -8 5 -21 0 -30 -5
-9 -5 -22 0 -30 5 -8 5 -21 0 -30 -5 -9 -5 -22 0 -30 5 -8 5 -21 0 -30 -5 -9
-5 -22 0 -30 5 -8 5 -21 0 -30 -5 -9 -5 -22 0 -30 5 -8 5 -21 0 -30 -5 -9 -5
-22 0 -30 5 -8 5 -21 0 -30 -5 -9 -5 -22 0 -30 5 -8 5 -21 0 -30 -5 -9 -5 -22
0 -30 5 -8 5 -21 0 -30 -5 -9 -5 -22 0 -30 5 -8 5 -21 0 -30 -5 -9 -5 -22 0
-30 5 -8 5 -21 0 -30 -5 -9 -5 -22 0 -30 5 -8 5 -21 0 -30 -5 -9 -5 -22 0 -30
5 -8 5 -21 0 -30 -5 -9 -5 -22 0 -30 5 -8 5 -21 0 -30 -5 -9 -5 -22 0 -30 5
-8 5 -21 0 -30 -5 -9 -5 -22 0 -30 5 -8 5 -21 0 -30 -5 -9 -5 -22 0 -30 5 -8
5 -21 0 -30 -5 -9 -5 -22 0 -30 5 -8 5 -21 0 -30 -5 -9 -5 -22 0 -30 5 -8 5
-21 0 -30 -5 -9 -5 -22 0 -30 5 -8 5 -21 0 -30 -5 -9 -5 -22 0 -30 5 -8 5 -21
0 -30 -5 -9 -5 -22 0 -30 5 -8 5 -21 0 -30 -5 -9 -5 -22 0 -30 5 -8 5 -21 0
-30 -5 -9 -5 -22 0 -30 5 -8 5 -21 0 -30 -5 -9 -5 -22 0 -30 5 -8 5 -21 0 -30
-5 -9 -5 -22 0 -30 5 -8 5 -21 0 -31 -5 -9 -7 -19 -4 -22 8 -8 9 -106 1 -113
-3 -3 -1 -18 3 -34 4 -16 6 -31 3 -34 -8 -8 -9 -146 -1 -146 3 0 4 -8 2 -18
-7 -30 -9 -142 -3 -142 4 0 3 -15 -1 -34 -4 -19 -4 -40 0 -47 5 -7 5 -22 0
-34 -4 -11 -4 -28 0 -36 5 -8 5 -21 1 -28 -5 -7 -5 -28 -1 -47 4 -19 4 -36 0
-39 -5 -3 -5 -18 0 -34 4 -16 6 -32 3 -35 -8 -8 -9 -146 -1 -146 3 0 4 -8 2
-17 -7 -31 -9 -143 -3 -143 4 0 3 -15 -1 -34 -4 -19 -4 -40 0 -47 5 -7 5 -22
0 -34 -4 -11 -4 -28 0 -36 5 -8 5 -21 1 -28 -5 -7 -5 -28 -1 -47 4 -19 4 -36
0 -39 -5 -3 -5 -19 0 -35 5 -16 5 -32 0 -35 -4 -3 -4 -20 0 -39 4 -19 5 -37 3
-40 -3 -2 0 -20 6 -39 24 -71 101 -107 148 -70 11 10 213 274 447 588 460 616
471 630 531 708 82 104 124 177 135 233 7 31 10 64 7 74 -2 10 -1 24 3 31 5 7
5 22 0 34 -5 12 -5 27 0 34 4 7 4 28 0 47 -4 19 -4 34 0 34 4 0 4 16 0 35 -4
19 -4 37 0 40 4 2 4 23 0 45 -4 22 -4 43 1 45 4 3 4 19 -1 35 -5 16 -5 32 -1
35 5 2 5 23 1 45 -4 22 -4 40 0 40 4 0 4 16 0 35 -4 19 -5 35 -1 35 5 0 5 20
1 45 -4 25 -3 48 1 50 4 3 4 19 -1 35 -5 16 -5 32 -1 35 5 2 5 23 1 45 -4 22
-4 40 0 40 4 0 4 16 0 35 -4 19 -5 35 -1 35 5 0 5 20 1 45 -4 25 -3 48 1 50 4
3 4 19 -1 35 -5 16 -5 32 -1 35 5 2 5 23 1 45 -4 22 -4 40 0 40 4 0 4 16 0 35
-4 19 -5 35 -1 35 7 0 5 96 -3 116 -3 8 -1 14 4 14 5 0 5 13 0 30 -5 17 -5 30
0 30 5 0 5 13 0 30 -5 17 -5 30 0 30 5 0 5 13 0 30 -5 17 -5 30 0 30 5 0 5 13
0 30 -5 17 -5 30 0 30 5 0 5 13 0 30 -5 17 -5 30 0 30 5 0 5 13 0 30 -5 17 -5
30 0 30 5 0 5 13 0 30 -5 17 -5 30 0 30 5 0 5 13 0 30 -5 17 -5 30 0 30 5 0 5
13 0 30 -5 17 -5 30 0 30 5 0 5 13 0 30 -5 17 -5 30 0 30 5 0 5 13 0 30 -5 17
-5 30 0 30 5 0 5 13 0 30 -5 17 -5 30 0 30 5 0 5 13 0 30 -5 17 -5 30 0 30 5
0 5 13 0 30 -5 17 -5 30 0 30 5 0 5 13 0 30 -5 17 -5 30 0 30 5 0 5 13 0 30
-5 17 -5 30 0 30 5 0 5 13 0 30 -5 17 -5 30 0 30 5 0 5 13 0 30 -5 17 -5 30 0
30 5 0 5 13 0 30 -5 17 -5 30 0 30 5 0 5 13 0 30 -5 17 -5 30 0 30 5 0 5 13 0
30 -5 17 -5 30 0 30 5 0 5 13 0 30 -5 17 -5 30 0 30 5 0 5 13 0 30 -5 17 -5
30 0 30 5 0 5 13 0 30 -5 17 -5 30 0 30 5 0 5 13 0 30 -5 17 -5 30 0 30 5 0 5
13 0 30 -5 17 -5 30 0 30 5 0 5 13 0 30 -5 17 -5 30 0 30 5 0 5 13 0 30 -5 17
-5 30 0 30 5 0 5 13 0 30 -5 17 -5 30 0 30 5 0 5 13 0 30 -5 17 -5 30 0 30 5
0 5 13 0 30 -5 17 -5 30 0 30 5 0 5 13 0 30 -5 17 -5 30 0 30 5 0 5 13 0 30
-5 17 -5 30 0 30 5 0 5 13 0 30 -5 17 -5 30 0 30 5 0 5 13 0 30 -5 17 -5 30 0
30 5 0 5 13 0 30 -5 17 -5 30 0 30 5 0 5 13 0 30 -5 17 -5 30 0 30 5 0 5 13 0
30 -5 17 -5 30 0 30 5 0 5 13 0 30 -5 17 -5 30 0 30 5 0 5 13 0 30 -5 19 -5
30 1 30 6 0 7 4 4 10 -8 13 -11 108 -3 115 3 4 2 20 -2 36 -5 16 -5 31 -1 34
5 2 5 23 1 45 -4 22 -4 40 0 40 4 0 4 16 0 35 -4 19 -5 35 -1 35 5 0 5 20 1
45 -4 25 -3 48 1 50 4 3 4 19 -1 35 -5 16 -5 32 -1 35 5 2 5 23 1 45 -4 22 -4
40 0 40 4 0 4 16 0 35 -4 19 -5 35 -1 35 5 0 5 20 1 45 -4 25 -3 48 1 50 4 3
4 19 -1 35 -5 16 -5 32 -1 35 5 2 5 23 1 45 -4 22 -4 40 0 40 4 0 4 16 0 35
-4 19 -5 35 -1 35 5 0 5 20 1 45 -4 25 -3 48 1 50 4 3 4 19 -1 35 -5 16 -5 32
-1 35 5 2 5 23 1 45 -4 22 -4 40 0 40 4 0 4 16 0 35 -4 19 -5 35 -1 35 5 0 5
20 1 45 -4 25 -3 48 1 50 4 3 4 19 -1 35 -5 16 -5 32 -1 35 5 2 5 23 1 45 -4
22 -4 40 0 40 4 0 4 16 0 35 -4 19 -5 35 -1 35 5 0 5 20 1 45 -4 25 -3 48 1
50 4 3 4 19 -1 35 -5 16 -5 32 -1 35 5 2 5 23 1 45 -4 22 -4 40 0 40 4 0 4 16
0 35 -4 19 -5 35 -1 35 5 0 5 20 1 45 -4 25 -3 48 1 50 4 3 4 19 -1 35 -5 16
-5 32 -1 35 5 2 5 23 1 45 -4 22 -4 40 0 40 4 0 4 16 0 35 -4 19 -5 35 -1 35
5 0 5 20 1 45 -4 25 -3 48 1 50 4 3 4 19 -1 35 -5 16 -5 32 -1 35 5 2 5 23 1
45 -4 22 -4 40 0 40 4 0 4 16 0 35 -4 19 -5 35 -1 35 7 0 5 96 -3 116 -3 8 -1
14 4 14 5 0 5 13 0 30 -5 17 -5 30 0 30 5 0 5 13 0 30 -5 17 -5 30 0 30 5 0 5
13 0 30 -5 17 -5 30 0 30 5 0 5 13 0 30 -5 17 -5 30 0 30 5 0 5 13 0 30 -5 17
-5 30 0 30 5 0 5 13 0 30 -5 17 -5 30 0 30 5 0 5 13 0 30 -5 17 -5 30 0 30 5
0 5 13 0 29 -4 15 -4 34 0 42 5 7 6 17 3 21 -2 5 -6 28 -8 52 -6 96 -89 152
-152 103z"/>
<path d="M4280 6642 c-14 -4 -108 -98 -275 -274 -403 -425 -391 -412 -615
-647 -80 -84 -154 -169 -165 -189 -20 -37 -20 -59 -23 -2682 -1 -1455 0 -2655
3 -2667 9 -39 55 -73 99 -73 44 0 28 -15 346 320 80 83 172 180 205 215 504
528 532 559 540 593 3 9 8 33 12 52 5 19 8 1212 7 2651 0 2086 -3 2622 -13
2647 -16 39 -79 67 -121 54z"/>
</g>
</svg>
